<?xml version="1.0" encoding="UTF-8" standalone="no"?>
<!-- Created with Inkscape (http://www.inkscape.org/) -->

<svg
   width="210mm"
   height="297mm"
   viewBox="0 0 210 297"
   version="1.1"
   id="svg5"
   xml:space="preserve"
   inkscape:version="1.2.2 (732a01da63, 2022-12-09)"
   sodipodi:docname="QuioraSVG.svg"
   xmlns:inkscape="http://www.inkscape.org/namespaces/inkscape"
   xmlns:sodipodi="http://sodipodi.sourceforge.net/DTD/sodipodi-0.dtd"
   xmlns="http://www.w3.org/2000/svg"
   xmlns:svg="http://www.w3.org/2000/svg"><sodipodi:namedview
     id="namedview7"
     pagecolor="#ffffff"
     bordercolor="#000000"
     borderopacity="0.25"
     inkscape:showpageshadow="2"
     inkscape:pageopacity="0.0"
     inkscape:pagecheckerboard="0"
     inkscape:deskcolor="#d1d1d1"
     inkscape:document-units="mm"
     showgrid="false"
     inkscape:zoom="1.4142136"
     inkscape:cx="351.07852"
     inkscape:cy="223.44574"
     inkscape:window-width="1366"
     inkscape:window-height="697"
     inkscape:window-x="1432"
     inkscape:window-y="50"
     inkscape:window-maximized="1"
     inkscape:current-layer="layer1" /><defs
     id="defs2" /><g
     inkscape:label="Camada 1"
     inkscape:groupmode="layer"
     id="layer1"
     inkscape:export-filename="LogoQuiora.png"
     inkscape:export-xdpi="96"
     inkscape:export-ydpi="96"><path
       style="fill:#000000;stroke-width:0.116582"
       id="path302"
       d="" /><path
       style="fill:#27a9e1;stroke:none;stroke-width:0.156573"
       d="m 79.824979,51.520908 c -4.42992,0 -8.583176,0.827954 -12.056122,3.804722 -7.967845,6.829404 -7.4856,19.88963 1.252584,25.889819 5.00517,3.436773 10.829843,2.872642 16.59674,2.872642 8.561413,0 17.110299,-0.156571 25.677979,-0.156571 5.27682,0 10.68517,0.620029 15.81388,-0.849722 2.36174,-0.676863 4.62829,-1.916454 6.57606,-3.398103 1.88874,-1.436716 3.5874,-3.290069 4.84359,-5.30313 7.64937,-12.259037 0.11602,-29.091466 -14.23797,-31.402549 -3.46872,-0.558485 -7.00085,-0.194965 -10.33382,0.87081 -1.01037,-2.341097 -3.12582,-4.358401 -5.16691,-5.815059 C 97.383707,29.892782 80.931638,37.499491 79.824979,51.520908 Z"
       id="path330" /><path
       style="fill:#ffffff;stroke:none;stroke-width:0.0431585"
       d="m 103.23625,54.039446 -1.38107,0.94949 1.10382,1.94213 2.18944,3.79795 0.97944,1.7695 c -0.43785,0.1851 -0.83801,0.57664 -1.20844,0.87176 -0.69524,0.55394 -1.39717,1.10062 -2.07161,1.6802 l -0.86317,0.74638 c -0.1022,0.0886 -0.2366,0.26927 -0.37609,0.29383 -0.17522,0.0309 -0.41406,-0.28425 -0.53024,-0.38614 -0.37725,-0.3309 -0.7469,-0.66969 -1.122125,-1.00279 -0.14635,-0.12991 -0.3306,-0.35947 -0.5179,-0.4233 -0.16746,-0.0571 -0.48403,0.15675 -0.55533,0.30569 -0.0954,0.19927 0.2142,0.55429 0.3085,0.71967 0.32369,0.56779 0.957085,1.30611 1.096965,1.94213 0.0682,0.31005 -0.600465,0.81781 -0.763825,1.07897 0.31381,-0.006 1.018725,-0.32067 1.280565,-0.14273 0.17406,0.11826 0.27505,0.39732 0.37777,0.57431 0.25847,0.44531 0.51617,0.89032 0.77068,1.33792 0.0998,0.17548 0.25118,0.60374 0.4671,0.65531 0.18105,0.0432 0.43711,-0.15601 0.59973,-0.22373 l -0.60422,-2.89162 4.10006,-1.50192 0.99265,-0.41419 0.41475,-0.10207 0.26711,0.37816 0.62157,1.07896 2.39007,4.14322 0.72075,1.25159 0.34138,0.43953 0.46655,-0.16724 1.0358,-0.48808 c -0.2801,-2.08067 -0.86791,-4.15647 -1.28612,-6.21482 -0.11437,-0.56176 -0.24169,-1.12105 -0.3539,-1.68319 -0.0358,-0.17824 -0.15753,-0.46563 -0.0997,-0.64284 0.10962,-0.33496 1.0125,-0.64708 1.30813,-0.82455 1.01552,-0.60935 2.19936,-1.27473 2.81049,-2.33056 0.31203,-0.53874 0.46438,-1.32121 0.14932,-1.89897 -0.31894,-0.58484 -1.04227,-0.8198 -1.66505,-0.82001 -1.22096,-3.9e-4 -2.41472,0.64038 -3.45268,1.22673 -0.31981,0.1808 -0.63702,0.36763 -0.94949,0.56107 -0.11955,0.0741 -0.27967,0.2195 -0.43158,0.17949 -0.20717,-0.0546 -0.40613,-0.31126 -0.56107,-0.44958 -0.40279,-0.35968 -0.80706,-0.7176 -1.20843,-1.07883 -1.01747,-0.9157 -2.04684,-1.81788 -3.06426,-2.73358 -0.55238,-0.49714 -1.09566,-1.10874 -1.72634,-1.50325 m -1.85582,16.05497 c -0.1107,-0.3763 -0.37642,-0.74324 -0.57832,-1.07897 -0.0701,-0.11657 -0.14436,-0.29758 -0.29283,-0.32766 -0.4605,-0.0933 -1.092135,0.45796 -1.431405,-0.10582 -0.31665,-0.52615 0.52857,-0.87236 0.64436,-1.29286 0.0673,-0.24428 -0.33392,-0.74146 -0.45657,-0.94949 -1.61832,0.371 -3.21242,0.83668 -4.87692,0.95333 -0.84948,0.0596 -1.77877,0.0739 -2.54635,-0.36369 -1.45517,-0.8296 -1.52673,-2.78381 -0.75078,-4.08547 1.33696,-2.24278 3.98046,-3.44056 6.1456,-4.70428 -0.26444,-0.1032 -0.67764,0.0578 -0.94949,0.11221 -0.76934,0.1539 -1.53321,0.3312 -2.2874,0.54772 -2.07256,0.59503 -4.14024,1.4374 -5.78324,2.86689 -1.10093,0.95791 -1.98189,2.30346 -1.98189,3.81012 0,2.52737 2.07399,4.68417 4.35561,5.43793 2.56141,0.84626 5.35554,0.5463 7.94116,-0.0248 0.95454,-0.21083 1.934455,-0.44518 2.848465,-0.79515 z"
       id="path1636" /><path
       style="fill:#f15025;fill-opacity:1;stroke:none;stroke-width:0.065;stroke-linecap:butt;stroke-linejoin:miter;stroke-dasharray:none;stroke-opacity:1"
       d="m 97.213503,58.13921 c -4.886192,2.982151 -7.149622,4.720339 -6.496237,7.319619 l -1.477243,-2.034239 -2.567014,3.995822 c -0.492439,-0.914824 -1.268888,-3.478652 1.864717,-6.030057 2.519529,-2.153573 8.489778,-3.595602 8.675777,-3.251145 z"
       id="path2996"
       sodipodi:nodetypes="cccccc" /><path
       style="fill:#f15025;fill-opacity:1;stroke:none;stroke-width:0.264583px;stroke-linecap:butt;stroke-linejoin:miter;stroke-opacity:1"
       d="m 99.424533,64.268801 c -1.175862,-0.0059 -0.525504,0.994393 0.513723,2.209006 -0.278833,-0.665324 -0.966747,-1.060655 -0.513723,-2.209006 z"
       id="path3780"
       sodipodi:nodetypes="ccc" /><path
       style="fill:#f15025;fill-opacity:1;stroke:none;stroke-width:0.264583px;stroke-linecap:butt;stroke-linejoin:miter;stroke-opacity:1"
       d="m 101.54231,69.351728 c 0.38437,1.051732 0.80607,1.888764 1.47724,1.17187 -0.37063,0.148683 -0.87523,-0.295882 -1.47724,-1.17187 z"
       id="path3834"
       sodipodi:nodetypes="ccc" /><path
       style="fill:#f15025;fill-opacity:1;stroke:none;stroke-width:0.264583px;stroke-linecap:butt;stroke-linejoin:miter;stroke-opacity:1"
       d="m 99.528425,68.321084 c 0.109804,-0.17394 0.388787,-0.441869 0.587395,-0.665145 -0.167372,0.240452 -0.362066,0.489717 0.1754,0.502801 -0.706075,0.18261 -0.774008,0.181324 -0.762795,0.162344 z"
       id="path3836"
       sodipodi:nodetypes="cccc" /></g></svg>
